<svg version="1.1" id="Layer_1" xmlns="http://www.w3.org/2000/svg" xmlns:xlink="http://www.w3.org/1999/xlink" x="0px" y="0px"
	 width="100%" viewBox="0 0 508 594" enable-background="new 0 0 508 594" xml:space="preserve">
<path fill="none" opacity="1.000000" stroke="none" 
	d="
M292.000000,595.000000 
	C194.688629,595.000000 97.877258,595.000000 1.032942,595.000000 
	C1.032942,397.066864 1.032942,199.133743 1.032942,1.100300 
	C170.228012,1.100300 339.456085,1.100300 508.842102,1.100300 
	C508.842102,198.999893 508.842102,396.999939 508.842102,595.000000 
	C436.800446,595.000000 364.650208,595.000000 292.000000,595.000000 
M294.389771,281.717438 
	C232.439789,287.118652 179.455521,311.873474 137.368149,357.580902 
	C95.499443,403.050842 74.803894,457.458405 74.015602,519.999146 
	C76.880402,519.999146 79.012711,519.999146 81.145020,519.999146 
	C130.126404,519.999268 179.111008,520.308655 228.087021,519.795776 
	C241.384018,519.656555 254.771271,517.699646 267.911224,515.400513 
	C288.674744,511.767517 308.355988,504.497650 327.206573,495.063629 
	C349.468475,483.922394 369.618256,469.786224 387.272675,452.197876 
	C391.494904,447.991425 395.301270,443.370544 399.451172,439.087830 
	C411.582947,426.567871 421.037903,412.120178 429.445923,396.991791 
	C440.759552,376.635529 448.876495,354.981903 453.779327,332.219604 
	C457.408325,315.371185 459.823639,298.336823 458.974518,280.071899 
	C458.319977,270.379517 457.664459,260.687225 457.011078,250.994781 
	C455.851990,233.800323 451.260529,217.296875 445.493134,201.267502 
	C434.743286,171.390427 418.845337,144.277466 397.205322,120.973930 
	C387.591949,110.621506 376.605133,101.470490 365.748352,92.362251 
	C344.025787,74.138214 318.794983,62.086811 292.149170,53.189682 
	C267.412567,44.930038 241.641937,42.130718 215.636536,42.042759 
	C170.313004,41.889454 124.988564,42.000099 79.664505,42.000103 
	C77.891739,42.000103 76.118973,42.000099 73.077560,42.000099 
	C74.426682,55.411499 75.389038,68.171814 77.056885,80.839249 
	C79.836197,101.948456 86.267456,122.057442 95.116760,141.374603 
	C108.452866,170.485992 126.946289,195.917755 150.310120,217.803711 
	C152.343140,219.708130 154.624435,221.345261 156.692307,223.215057 
	C168.732620,234.102203 181.886292,243.556458 196.287018,250.888229 
	C209.739273,257.737091 223.613281,263.982361 237.811722,269.069763 
	C249.215195,273.155701 261.329468,275.354218 273.229248,277.922516 
	C280.386719,279.467285 287.737640,280.115753 294.389771,281.717438 
z"/>
<path fill="#44546A" opacity="1.000000" stroke="none" 
	d="
M458.832642,281.000824 
	C459.823639,298.336823 457.408325,315.371185 453.779327,332.219604 
	C448.876495,354.981903 440.759552,376.635529 429.445923,396.991791 
	C421.037903,412.120178 411.582947,426.567871 399.451172,439.087830 
	C395.301270,443.370544 391.494904,447.991425 387.272675,452.197876 
	C369.618256,469.786224 349.468475,483.922394 327.206573,495.063629 
	C308.355988,504.497650 288.674744,511.767517 267.911224,515.400513 
	C254.771271,517.699646 241.384018,519.656555 228.087021,519.795776 
	C179.111008,520.308655 130.126404,519.999268 81.145020,519.999146 
	C79.012711,519.999146 76.880402,519.999146 74.015602,519.999146 
	C74.803894,457.458405 95.499443,403.050842 137.368149,357.580902 
	C179.455521,311.873474 232.439789,287.118652 295.160217,281.384583 
	C350.231354,281.034729 404.531982,281.017761 458.832642,281.000824 
z"/>
<path fill="#0068FF" opacity="1.000000" stroke="none" 
	d="
M458.903564,280.536377 
	C404.531982,281.017761 350.231354,281.034729 295.466156,281.109375 
	C287.737640,280.115753 280.386719,279.467285 273.229248,277.922516 
	C261.329468,275.354218 249.215195,273.155701 237.811722,269.069763 
	C223.613281,263.982361 209.739273,257.737091 196.287018,250.888229 
	C181.886292,243.556458 168.732620,234.102203 156.692307,223.215057 
	C154.624435,221.345261 152.343140,219.708130 150.310120,217.803711 
	C126.946289,195.917755 108.452866,170.485992 95.116760,141.374603 
	C86.267456,122.057442 79.836197,101.948456 77.056885,80.839249 
	C75.389038,68.171814 74.426682,55.411499 73.077560,42.000099 
	C76.118973,42.000099 77.891739,42.000103 79.664505,42.000103 
	C124.988564,42.000099 170.313004,41.889454 215.636536,42.042759 
	C241.641937,42.130718 267.412567,44.930038 292.149170,53.189682 
	C318.794983,62.086811 344.025787,74.138214 365.748352,92.362251 
	C376.605133,101.470490 387.591949,110.621506 397.205322,120.973930 
	C418.845337,144.277466 434.743286,171.390427 445.493134,201.267502 
	C451.260529,217.296875 455.851990,233.800323 457.011078,250.994781 
	C457.664459,260.687225 458.319977,270.379517 458.903564,280.536377 
z"/>
</svg>